<?xml version="1.0" encoding="UTF-8"?>
<!DOCTYPE svg PUBLIC "-//W3C//DTD SVG 1.1//EN" "http://www.w3.org/Graphics/SVG/1.1/DTD/svg11.dtd">
<svg xmlns="http://www.w3.org/2000/svg" version="1.1" width="512px" height="512px" style="shape-rendering:geometricPrecision; text-rendering:geometricPrecision; image-rendering:optimizeQuality; fill-rule:evenodd; clip-rule:evenodd" xmlns:xlink="http://www.w3.org/1999/xlink">
<g><path style="opacity:0.959" fill="#000000" d="M 212.5,31.5 C 241.169,31.3334 269.835,31.5 298.5,32C 316.477,38.4283 324.477,51.2616 322.5,70.5C 316.833,70.5 311.167,70.5 305.5,70.5C 307.65,60.64 304.317,53.4733 295.5,49C 282.211,47.8811 268.878,47.3811 255.5,47.5C 242.122,47.3811 228.789,47.8811 215.5,49C 206.683,53.4733 203.35,60.64 205.5,70.5C 199.824,70.6661 194.157,70.4994 188.5,70C 186.69,51.1309 194.69,38.2975 212.5,31.5 Z"/></g>
<g><path style="opacity:0.982" fill="#000000" d="M 101.5,85.5 C 206.526,85.0152 311.526,85.5152 416.5,87C 424.359,89.5261 429.526,94.6928 432,102.5C 434,120.833 434,139.167 432,157.5C 428.641,165.529 422.808,170.696 414.5,173C 308.5,173.667 202.5,173.667 96.5,173C 88.1923,170.696 82.359,165.529 79,157.5C 77,139.167 77,120.833 79,102.5C 83.2459,92.4089 90.7459,86.7422 101.5,85.5 Z"/></g>
<g><path style="opacity:0.987" fill="#000000" d="M 102.5,188.5 C 204.5,188.5 306.5,188.5 408.5,188.5C 404.191,273.812 400.025,359.146 396,444.5C 393.332,462.692 383.165,474.192 365.5,479C 292.167,479.667 218.833,479.667 145.5,479C 127.835,474.192 117.668,462.692 115,444.5C 110.975,359.146 106.809,273.812 102.5,188.5 Z M 178.5,235.5 C 182.016,236.179 184.516,238.179 186,241.5C 189.586,303.807 192.253,366.14 194,428.5C 190.93,432.707 187.097,433.54 182.5,431C 181.283,429.352 180.45,427.519 180,425.5C 176.758,363.843 174.091,302.177 172,240.5C 173.603,237.965 175.769,236.298 178.5,235.5 Z M 252.5,236.5 C 258.326,235.489 261.826,237.822 263,243.5C 263.667,303.833 263.667,364.167 263,424.5C 260.409,433.373 255.743,434.706 249,428.5C 248.667,427.167 248.333,425.833 248,424.5C 247.333,364.167 247.333,303.833 248,243.5C 248.53,240.415 250.03,238.082 252.5,236.5 Z M 328.5,236.5 C 337.235,236.073 340.902,240.24 339.5,249C 336.652,307.832 333.818,366.666 331,425.5C 327.824,433.474 323.157,434.474 317,428.5C 318.747,366.14 321.414,303.807 325,241.5C 325.997,239.677 327.164,238.01 328.5,236.5 Z"/></g>
</svg>
