<?xml version="1.0" encoding="UTF-8"?>
<!DOCTYPE svg PUBLIC "-//W3C//DTD SVG 1.1//EN" "http://www.w3.org/Graphics/SVG/1.1/DTD/svg11.dtd">
<svg xmlns="http://www.w3.org/2000/svg" version="1.1" width="512px" height="512px" style="shape-rendering:geometricPrecision; text-rendering:geometricPrecision; image-rendering:optimizeQuality; fill-rule:evenodd; clip-rule:evenodd" xmlns:xlink="http://www.w3.org/1999/xlink">
<g><path style="opacity:0.998" fill="#472b3c" d="M 120.5,-0.5 C 138.5,-0.5 156.5,-0.5 174.5,-0.5C 197.389,1.17972 219.722,6.01305 241.5,14C 246.333,16.5821 251,19.4155 255.5,22.5C 264.834,15.6598 275.168,10.8264 286.5,8C 303.108,3.95463 319.775,1.1213 336.5,-0.5C 354.5,-0.5 372.5,-0.5 390.5,-0.5C 411.533,1.17664 432.199,5.3433 452.5,12C 462.985,15.493 471.485,21.6597 478,30.5C 479.484,73.4395 479.984,116.44 479.5,159.5C 490.649,156.662 498.482,160.329 503,170.5C 503.5,262.833 503.667,355.166 503.5,447.5C 507.056,447.278 509.723,448.611 511.5,451.5C 511.5,458.5 511.5,465.5 511.5,472.5C 508.123,491.538 497.456,504.538 479.5,511.5C 330.167,511.5 180.833,511.5 31.5,511.5C 13.5341,504.53 2.86741,491.53 -0.5,472.5C -0.5,465.5 -0.5,458.5 -0.5,451.5C 1.2774,448.611 3.94407,447.278 7.5,447.5C 7.33334,355.166 7.5,262.833 8,170.5C 8.90087,167.929 10.2342,165.596 12,163.5C 12.8825,138.967 19.2158,115.967 31,94.5C 31.3333,74.1667 31.6667,53.8333 32,33.5C 36.9931,23.5128 44.8264,16.6795 55.5,13C 76.7265,5.72234 98.3932,1.22234 120.5,-0.5 Z"/></g>
<g><path style="opacity:1" fill="#f1f0f1" d="M 255.5,71.5 C 255.768,73.099 255.434,74.4324 254.5,75.5C 245.315,65.9772 234.981,57.9772 223.5,51.5C 177.742,23.3642 130.742,21.1976 82.5,45C 69.5589,52.2653 58.0589,61.432 48,72.5C 47.3333,60.8333 47.3333,49.1667 48,37.5C 55.631,30.7673 64.4643,26.2673 74.5,24C 106.377,16.0936 138.71,13.427 171.5,16C 194.714,17.3121 217.047,22.3121 238.5,31C 241.783,32.5605 244.617,34.7272 247,37.5C 247.333,46.8333 247.667,56.1667 248,65.5C 248.863,69.5181 251.363,71.5181 255.5,71.5 Z"/></g>
<g><path style="opacity:1" fill="#e9e8e9" d="M 288.5,145.5 C 284.598,118.367 273.265,95.034 254.5,75.5C 255.434,74.4324 255.768,73.099 255.5,71.5C 259.65,71.513 262.15,69.513 263,65.5C 263.333,56.1667 263.667,46.8333 264,37.5C 269.067,32.7751 274.901,29.2751 281.5,27C 300.335,20.7495 319.669,17.0828 339.5,16C 359.539,15.1676 379.539,15.6676 399.5,17.5C 399.5,41.5 399.5,65.5 399.5,89.5C 363.52,85.503 327.854,87.3364 292.5,95C 286.253,99.5135 285.92,104.514 291.5,110C 292.667,110.167 293.833,110.333 295,110.5C 329.564,103.223 364.397,101.557 399.5,105.5C 399.5,116.167 399.5,126.833 399.5,137.5C 363.52,133.503 327.854,135.336 292.5,143C 291.307,144.095 289.973,144.928 288.5,145.5 Z"/></g>
<g><path style="opacity:1" fill="#ec1c24" d="M 423.5,21.5 C 423.5,62.1667 423.5,102.833 423.5,143.5C 420.383,143.642 417.883,144.976 416,147.5C 415.5,105.168 415.333,62.8346 415.5,20.5C 418.385,20.1936 421.052,20.5269 423.5,21.5 Z"/></g>
<g><path style="opacity:1" fill="#c0272d" d="M 423.5,21.5 C 426.167,21.8333 428.833,22.1667 431.5,22.5C 431.667,64.168 431.5,105.835 431,147.5C 429.117,144.976 426.617,143.642 423.5,143.5C 423.5,102.833 423.5,62.1667 423.5,21.5 Z"/></g>
<g><path style="opacity:1" fill="#e9e9e9" d="M 458.5,34.5 C 459.472,69.0942 456.972,103.428 451,137.5C 450.151,142.046 448.985,146.379 447.5,150.5C 447.167,109.828 447.5,69.1612 448.5,28.5C 452.229,30.023 455.562,32.023 458.5,34.5 Z"/></g>
<g><path style="opacity:1" fill="#d9d3d3" d="M 458.5,34.5 C 460.752,34.9156 462.252,36.249 463,38.5C 463.833,140.835 463.667,243.168 462.5,345.5C 440.554,335.743 417.554,330.243 393.5,329C 355.573,325.178 318.24,328.178 281.5,338C 277.793,339.402 274.126,340.902 270.5,342.5C 265.232,336.862 263.065,330.195 264,322.5C 264.671,321.748 265.504,321.414 266.5,321.5C 267.595,325.393 270.261,327.06 274.5,326.5C 329.973,320.948 373.639,295.615 405.5,250.5C 416.437,251.906 427.271,253.906 438,256.5C 444.231,255.941 447.231,252.608 447,246.5C 446.215,244.714 445.049,243.214 443.5,242C 432.472,239.031 421.472,236.531 410.5,234.5C 412.792,234.756 414.959,234.423 417,233.5C 422.262,224.978 426.429,215.978 429.5,206.5C 433.334,208.166 437.334,208.666 441.5,208C 448.466,204.154 449.133,199.487 443.5,194C 440.996,193.302 438.663,192.469 436.5,191.5C 438.187,186.139 439.853,180.805 441.5,175.5C 444.484,174.679 446.317,172.679 447,169.5C 447.5,163.175 447.666,156.842 447.5,150.5C 448.985,146.379 450.151,142.046 451,137.5C 456.972,103.428 459.472,69.0942 458.5,34.5 Z"/></g>
<g><path style="opacity:1" fill="#6e6eed" d="M 136.5,45.5 C 171.617,46.4764 201.117,59.8097 225,85.5C 225.464,86.0944 225.631,86.7611 225.5,87.5C 194.259,57.6884 157.592,48.1884 115.5,59C 75.5047,73.3275 50.6714,101.161 41,142.5C 34.4597,196.258 54.9597,235.758 102.5,261C 142.859,277.692 180.526,273.026 215.5,247C 244.047,222.059 257.38,190.559 255.5,152.5C 256.417,152.494 256.917,153.494 257,155.5C 259.461,183.079 254.294,209.079 241.5,233.5C 223.068,257.737 198.735,272.903 168.5,279C 112.321,285.993 70.154,265.159 42,216.5C 19.6379,166.692 26.3046,121.358 62,80.5C 82.5646,59.8016 107.398,48.1349 136.5,45.5 Z"/></g>
<g><path style="opacity:1" fill="#5857d9" d="M 136.5,45.5 C 192.48,42.9112 232.647,66.9112 257,117.5C 270.559,154.053 267.892,189.386 249,223.5C 247.021,227.3 244.521,230.634 241.5,233.5C 254.294,209.079 259.461,183.079 257,155.5C 256.917,153.494 256.417,152.494 255.5,152.5C 252.286,127.737 242.286,106.07 225.5,87.5C 225.631,86.7611 225.464,86.0944 225,85.5C 201.117,59.8097 171.617,46.4764 136.5,45.5 Z"/></g>
<g><path style="opacity:1" fill="#482c3e" d="M 225.5,87.5 C 242.286,106.07 252.286,127.737 255.5,152.5C 257.38,190.559 244.047,222.059 215.5,247C 180.526,273.026 142.859,277.692 102.5,261C 54.9597,235.758 34.4597,196.258 41,142.5C 50.6714,101.161 75.5047,73.3275 115.5,59C 157.592,48.1884 194.259,57.6884 225.5,87.5 Z"/></g>
<g><path style="opacity:1" fill="#f1eeee" d="M 134.5,70.5 C 159.004,68.3751 181.337,74.2084 201.5,88C 183.171,88.0915 164.838,87.9249 146.5,87.5C 128.433,87.5811 110.433,88.0811 92.5,89C 105.15,79.6222 119.15,73.4556 134.5,70.5 Z"/></g>
<g><path style="opacity:1" fill="#d8d3d3" d="M 223.5,51.5 C 234.981,57.9772 245.315,65.9772 254.5,75.5C 273.265,95.034 284.598,118.367 288.5,145.5C 286.795,149.935 287.461,153.935 290.5,157.5C 290.177,201.144 273.01,236.477 239,263.5C 240.723,270.284 243.557,276.617 247.5,282.5C 246.525,284.513 244.858,285.846 242.5,286.5C 238.776,280.219 235.443,273.719 232.5,267C 277.234,225.911 291.068,176.077 274,117.5C 263.654,90.4465 246.821,68.4465 223.5,51.5 Z"/></g>
<g><path style="opacity:1" fill="#f2f0f0" d="M 125.5,103.5 C 157.237,103.139 188.904,104.306 220.5,107C 228.362,116.557 233.695,127.391 236.5,139.5C 177.113,133.924 117.78,134.258 58.5,140.5C 61.0168,127.967 66.3501,116.8 74.5,107C 91.617,105.301 108.617,104.135 125.5,103.5 Z"/></g>
<g><path style="opacity:1" fill="#f2eff0" d="M 109.5,151.5 C 152.962,150.293 196.295,151.96 239.5,156.5C 240.213,166.976 238.879,177.142 235.5,187C 205.059,184.922 174.559,183.755 144,183.5C 116.746,183.75 89.5797,185.417 62.5,188.5C 61.0055,188.291 59.8388,187.624 59,186.5C 56.0223,176.718 54.8556,166.718 55.5,156.5C 73.6511,154.831 91.6511,153.165 109.5,151.5 Z"/></g>
<g><path style="opacity:1" fill="#e8e8e8" d="M 441.5,175.5 C 439.853,180.805 438.187,186.139 436.5,191.5C 388.516,181.095 340.516,180.929 292.5,191C 287.461,194.059 286.294,198.225 289,203.5C 290.722,205.444 292.889,206.444 295.5,206.5C 340.184,197.181 384.851,197.181 429.5,206.5C 426.429,215.978 422.262,224.978 417,233.5C 414.959,234.423 412.792,234.756 410.5,234.5C 370.885,229.324 331.551,230.824 292.5,239C 287.461,242.059 286.294,246.225 289,251.5C 290.722,253.444 292.889,254.444 295.5,254.5C 331.953,246.818 368.62,245.484 405.5,250.5C 373.639,295.615 329.973,320.948 274.5,326.5C 270.261,327.06 267.595,325.393 266.5,321.5C 267.167,320.5 267.833,319.5 268.5,318.5C 274.092,318.049 277.758,315.216 279.5,310C 277.462,303.255 274.128,297.255 269.5,292C 267.866,291.506 266.199,291.34 264.5,291.5C 263.67,281.341 263.17,271.008 263,260.5C 261.434,257.187 258.767,255.521 255,255.5C 252.594,255.703 250.594,256.703 249,258.5C 247.565,266.389 247.065,274.389 247.5,282.5C 243.557,276.617 240.723,270.284 239,263.5C 273.01,236.477 290.177,201.144 290.5,157.5C 291.908,158.061 293.408,158.395 295,158.5C 329.564,151.223 364.397,149.557 399.5,153.5C 399.334,158.844 399.501,164.177 400,169.5C 401.695,174.599 405.195,176.432 410.5,175C 414.982,171.353 419.315,167.519 423.5,163.5C 427.318,166.818 430.985,170.318 434.5,174C 436.677,175.202 439.011,175.702 441.5,175.5 Z"/></g>
<g><path style="opacity:1" fill="#d9d3d3" d="M 301.5,391.5 C 309.027,407.388 316.694,423.221 324.5,439C 374.167,439.667 423.833,439.667 473.5,439C 476.667,438.5 478.5,436.667 479,433.5C 479.829,415.662 479.662,397.995 478.5,380.5C 479.493,312.208 479.827,243.875 479.5,175.5C 482.167,175.5 484.833,175.5 487.5,175.5C 487.5,266.167 487.5,356.833 487.5,447.5C 432.166,447.667 376.832,447.5 321.5,447C 312.1,429.034 303.1,410.867 294.5,392.5C 296.743,391.526 299.076,391.192 301.5,391.5 Z"/></g>
<g><path style="opacity:1" fill="#482d3d" d="M 436.5,191.5 C 438.663,192.469 440.996,193.302 443.5,194C 449.133,199.487 448.466,204.154 441.5,208C 437.334,208.666 433.334,208.166 429.5,206.5C 384.851,197.181 340.184,197.181 295.5,206.5C 292.889,206.444 290.722,205.444 289,203.5C 286.294,198.225 287.461,194.059 292.5,191C 340.516,180.929 388.516,181.095 436.5,191.5 Z"/></g>
<g><path style="opacity:1" fill="#f2eff0" d="M 112.5,199.5 C 140.18,199.271 167.847,199.771 195.5,201C 206.932,201.31 218.265,202.476 229.5,204.5C 223.859,215.641 216.192,225.141 206.5,233C 186.198,232.081 165.865,231.581 145.5,231.5C 127.796,231.338 110.129,232.005 92.5,233.5C 86.8688,232.398 82.3688,229.398 79,224.5C 73.7571,218.352 69.2571,211.685 65.5,204.5C 81.237,202.214 96.9037,200.547 112.5,199.5 Z"/></g>
<g><path style="opacity:1" fill="#d9d3d3" d="M 25.5,217.5 C 27.0477,221.598 28.8811,225.598 31,229.5C 31.3333,279.167 31.6667,328.833 32,378.5C 33.3903,384.891 37.2236,389.058 43.5,391C 104.833,391.333 166.167,391.667 227.5,392C 239.566,415.299 251.233,438.799 262.5,462.5C 252.188,463.499 241.855,463.832 231.5,463.5C 230.994,455.665 226.994,450.498 219.5,448C 154.168,447.5 88.8342,447.333 23.5,447.5C 23.5,425.833 23.5,404.167 23.5,382.5C 24.1667,327.5 24.8333,272.5 25.5,217.5 Z"/></g>
<g><path style="opacity:1" fill="#482d3d" d="M 410.5,234.5 C 421.472,236.531 432.472,239.031 443.5,242C 445.049,243.214 446.215,244.714 447,246.5C 447.231,252.608 444.231,255.941 438,256.5C 427.271,253.906 416.437,251.906 405.5,250.5C 368.62,245.484 331.953,246.818 295.5,254.5C 292.889,254.444 290.722,253.444 289,251.5C 286.294,246.225 287.461,242.059 292.5,239C 331.551,230.824 370.885,229.324 410.5,234.5 Z"/></g>
<g><path style="opacity:1" fill="#a09199" d="M 127.5,247.5 C 123.833,248.167 120.167,248.833 116.5,249.5C 115.244,249.539 114.244,249.039 113.5,248C 118.155,247.501 122.821,247.334 127.5,247.5 Z"/></g>
<g><path style="opacity:1" fill="#ece8e9" d="M 127.5,247.5 C 141.167,247.5 154.833,247.5 168.5,247.5C 171.833,248.167 175.167,248.833 178.5,249.5C 157.82,256.143 137.154,256.143 116.5,249.5C 120.167,248.833 123.833,248.167 127.5,247.5 Z"/></g>
<g><path style="opacity:1" fill="#a5979f" d="M 168.5,247.5 C 172.846,247.334 177.179,247.501 181.5,248C 180.756,249.039 179.756,249.539 178.5,249.5C 175.167,248.833 171.833,248.167 168.5,247.5 Z"/></g>
<g><path style="opacity:1" fill="#f2f2f2" d="M 47.5,252.5 C 83.8952,289.927 127.895,303.927 179.5,294.5C 182.5,300.5 185.5,306.5 188.5,312.5C 181.64,315.685 177.974,321.018 177.5,328.5C 140.654,325.132 104.321,327.965 68.5,337C 61.513,339.16 54.8463,341.993 48.5,345.5C 47.5002,314.507 47.1668,283.507 47.5,252.5 Z"/></g>
<g><path style="opacity:1" fill="#5c5ae2" d="M 217.5,276.5 C 218.496,276.414 219.329,276.748 220,277.5C 222.227,282.954 224.727,288.287 227.5,293.5C 219.54,297.48 211.54,301.48 203.5,305.5C 199.941,299.715 196.941,293.715 194.5,287.5C 202.864,285.15 210.531,281.483 217.5,276.5 Z"/></g>
<g><path style="opacity:1" fill="#d8d2d3" d="M 264.5,291.5 C 266.199,291.34 267.866,291.506 269.5,292C 274.128,297.255 277.462,303.255 279.5,310C 277.758,315.216 274.092,318.049 268.5,318.5C 271.047,314.512 271.88,310.179 271,305.5C 268.548,300.932 266.382,296.265 264.5,291.5 Z"/></g>
<g><path style="opacity:1" fill="#6b6ae8" d="M 248.5,300.5 C 249.496,300.414 250.329,300.748 251,301.5C 252.167,303.833 253.333,306.167 254.5,308.5C 236.638,318.598 218.305,327.932 199.5,336.5C 197.347,334.206 195.68,331.54 194.5,328.5C 212.561,319.137 230.561,309.804 248.5,300.5 Z"/></g>
<g><path style="opacity:1" fill="#5a51d5" d="M 309.5,486.5 C 309.662,484.473 309.495,482.473 309,480.5C 285.556,431.943 261.389,383.943 236.5,336.5C 239.276,334.608 242.276,332.941 245.5,331.5C 270.409,379.485 294.409,427.985 317.5,477C 316.81,481.855 314.143,485.022 309.5,486.5 Z"/></g>
<g><path style="opacity:1" fill="#5d5de8" d="M 236.5,336.5 C 261.389,383.943 285.556,431.943 309,480.5C 309.495,482.473 309.662,484.473 309.5,486.5C 306.064,487.966 302.564,489.3 299,490.5C 296.594,490.297 294.594,489.297 293,487.5C 269.023,439.713 245.19,391.88 221.5,344C 226.243,340.962 231.243,338.462 236.5,336.5 Z"/></g>
<g><path style="opacity:1" fill="#bebdbd" d="M 123.5,343.5 C 144.222,343.061 164.889,343.895 185.5,346C 191.221,354.085 198.388,355.585 207,350.5C 208.419,352.336 209.586,354.336 210.5,356.5C 203.857,356.482 197.191,355.649 190.5,354C 150.785,349.265 111.451,351.265 72.5,360C 64.1703,362.278 56.1703,365.444 48.5,369.5C 47.3861,368.277 47.2195,366.944 48,365.5C 53.0672,360.775 58.9005,357.275 65.5,355C 84.5395,348.978 103.873,345.145 123.5,343.5 Z"/></g>
<g><path style="opacity:1" fill="#bebdbe" d="M 287.5,360.5 C 284.708,359.608 283.375,357.608 283.5,354.5C 301.624,348.376 320.291,344.876 339.5,344C 370.877,341.632 401.877,343.965 432.5,351C 439.975,353.27 447.309,355.936 454.5,359C 457.783,360.561 460.617,362.727 463,365.5C 463.781,366.944 463.614,368.277 462.5,369.5C 446.764,361.565 430.098,356.732 412.5,355C 370.415,348.769 328.748,350.602 287.5,360.5 Z"/></g>
<g><path style="opacity:1" fill="#7e7c7d" d="M 283.5,354.5 C 283.375,357.608 284.708,359.608 287.5,360.5C 285.513,361.343 283.346,362.01 281,362.5C 275.965,358.406 276.798,355.74 283.5,354.5 Z"/></g>
<g><path style="opacity:1" fill="#bab0b3" d="M 25.5,217.5 C 24.8333,272.5 24.1667,327.5 23.5,382.5C 23.3333,326.832 23.5,271.166 24,215.5C 24.7172,216.044 25.2172,216.711 25.5,217.5 Z"/></g>
<g><path style="opacity:1" fill="#acabab" d="M 120.5,367.5 C 140.854,367.237 161.187,367.737 181.5,369C 192.602,370.43 203.602,372.43 214.5,375C 169.167,375.667 123.833,375.667 78.5,375C 92.5424,371.907 106.542,369.407 120.5,367.5 Z"/></g>
<g><path style="opacity:1" fill="#ababab" d="M 337.5,367.5 C 369.528,365.632 401.195,368.132 432.5,375C 386.5,375.667 340.5,375.667 294.5,375C 308.898,372.046 323.231,369.546 337.5,367.5 Z"/></g>
<g><path style="opacity:1" fill="#e9e9e9" d="M 478.5,380.5 C 479.662,397.995 479.829,415.662 479,433.5C 478.5,436.667 476.667,438.5 473.5,439C 423.833,439.667 374.167,439.667 324.5,439C 316.694,423.221 309.027,407.388 301.5,391.5C 356.834,391.667 412.168,391.5 467.5,391C 472.987,389.345 476.654,385.845 478.5,380.5 Z"/></g>
<g><path style="opacity:1" fill="#656565" d="M 274.5,487.5 C 190.805,487.825 107.138,487.492 23.5,486.5C 18.5409,479.68 15.8742,472.013 15.5,463.5C 82.1667,463.5 148.833,463.5 215.5,463.5C 215.829,471.001 219.496,476.168 226.5,479C 241.511,479.167 256.511,479.667 271.5,480.5C 272.788,482.739 273.788,485.072 274.5,487.5 Z"/></g>
<g><path style="opacity:1" fill="#4d4c4d" d="M 336.5,463.5 C 342.067,470.786 342.733,478.452 338.5,486.5C 360,486.833 381.5,487.167 403,487.5C 425.881,487.646 448.715,487.146 471.5,486C 481.757,481.575 488.757,474.075 492.5,463.5C 493.5,463.5 494.5,463.5 495.5,463.5C 494.89,474.168 490.89,483.335 483.5,491C 481.33,492.586 478.996,493.92 476.5,495C 426.167,495.667 375.833,495.667 325.5,495C 334.339,485.603 335.672,475.27 329.5,464C 331.81,463.503 334.143,463.337 336.5,463.5 Z"/></g>
<g><path style="opacity:1" fill="#656565" d="M 336.5,463.5 C 388.5,463.5 440.5,463.5 492.5,463.5C 488.757,474.075 481.757,481.575 471.5,486C 448.715,487.146 425.881,487.646 403,487.5C 381.5,487.167 360,486.833 338.5,486.5C 342.733,478.452 342.067,470.786 336.5,463.5 Z"/></g>
<g><path style="opacity:1" fill="#7f7f7f" d="M 22.5,468.5 C 31.1695,469.668 34.5029,474.501 32.5,483C 25.4488,483.612 21.7821,480.279 21.5,473C 21.6052,471.408 21.9386,469.908 22.5,468.5 Z"/></g>
<g><path style="opacity:1" fill="#4c4c4c" d="M 23.5,486.5 C 107.138,487.492 190.805,487.825 274.5,487.5C 276.059,489.608 277.392,491.941 278.5,494.5C 197.169,495.667 115.835,495.833 34.5,495C 30.0415,493.114 26.3748,490.281 23.5,486.5 Z"/></g>
</svg>
