<?xml version="1.0" encoding="UTF-8"?>
<!DOCTYPE svg PUBLIC "-//W3C//DTD SVG 1.1//EN" "http://www.w3.org/Graphics/SVG/1.1/DTD/svg11.dtd">
<svg xmlns="http://www.w3.org/2000/svg" version="1.1" width="512px" height="512px" style="shape-rendering:geometricPrecision; text-rendering:geometricPrecision; image-rendering:optimizeQuality; fill-rule:evenodd; clip-rule:evenodd" xmlns:xlink="http://www.w3.org/1999/xlink">
<g><path style="opacity:0.978" fill="#9c26af" d="M 464.5,-0.5 C 467.5,-0.5 470.5,-0.5 473.5,-0.5C 474.458,0.961599 475.624,2.29493 477,3.5C 477.667,12.1667 477.667,20.8333 477,29.5C 470.445,36.3141 464.778,35.6474 460,27.5C 459.333,20.1667 459.333,12.8333 460,5.5C 460.804,2.85408 462.304,0.854084 464.5,-0.5 Z"/></g>
<g><path style="opacity:0.977" fill="#010000" d="M 210.5,511.5 C 143.833,511.5 77.1667,511.5 10.5,511.5C 5.83333,508.833 2.16667,505.167 -0.5,500.5C -0.5,452.5 -0.5,404.5 -0.5,356.5C 8.2074,326.938 28.2074,312.771 59.5,314C 30.7015,284.991 25.5349,252.157 44,215.5C 57.2393,194.787 76.0726,182.453 100.5,178.5C 97.473,157.399 103.806,139.899 119.5,126C 125.075,122.545 131.075,120.212 137.5,119C 153.83,118.5 170.163,118.333 186.5,118.5C 188.531,104.908 192.864,92.0742 199.5,80C 190.808,64.2403 191.642,49.0736 202,34.5C 216.682,22.7264 232.349,21.393 249,30.5C 293.478,8.25422 337.311,9.42089 380.5,34C 386.09,38.0452 391.59,42.2119 397,46.5C 399.786,49.9671 400.12,53.6338 398,57.5C 346.5,109 295,160.5 243.5,212C 316.833,212.333 390.167,212.667 463.5,213C 465.286,213.785 466.786,214.951 468,216.5C 471.564,247.244 464.897,275.578 448,301.5C 441.045,310.79 433.712,319.79 426,328.5C 412.423,350.538 406.923,374.538 409.5,400.5C 416.508,400.334 423.508,400.5 430.5,401C 437.152,406.381 437.152,411.715 430.5,417C 423.589,418.384 416.589,418.884 409.5,418.5C 408.377,435.131 399.877,446.131 384,451.5C 375.362,478.073 357.195,489.239 329.5,485C 312.821,479.654 302.321,468.488 298,451.5C 282.134,446.14 273.634,435.14 272.5,418.5C 265.094,418.848 257.761,418.348 250.5,417C 246.329,413.146 245.496,408.646 248,403.5C 248.903,402.299 250.069,401.465 251.5,401C 258.492,400.5 265.492,400.334 272.5,400.5C 274.717,375.443 269.551,352.11 257,330.5C 250.045,321.21 242.712,312.21 235,303.5C 219.251,279.58 211.584,253.246 212,224.5C 192.003,198.673 182.503,169.34 183.5,136.5C 167.762,136.047 152.096,136.547 136.5,138C 123.908,143.775 118.242,153.609 119.5,167.5C 119.833,171.167 120.167,174.833 120.5,178.5C 162.24,187.07 184.573,212.57 187.5,255C 187.538,278.57 178.871,298.237 161.5,314C 190.514,312.736 210.014,325.57 220,352.5C 221.648,401.788 221.981,451.121 221,500.5C 218.643,505.355 215.143,509.021 210.5,511.5 Z"/></g>
<g><path style="opacity:1" fill="#fddb02" d="M 342.5,36.5 C 350.173,41.3113 357.506,46.8113 364.5,53C 315.583,102.418 266.25,151.251 216.5,199.5C 201.396,172.083 197.563,143.083 205,112.5C 209.036,100.768 213.869,89.435 219.5,78.5C 219.423,76.701 218.923,75.0344 218,73.5C 207.842,63.4415 208.009,53.6082 218.5,44C 228.383,39.2942 236.717,41.2942 243.5,50C 246.167,50.6667 248.833,50.6667 251.5,50C 279.788,32.0639 310.122,27.5639 342.5,36.5 Z"/></g>
<g><path style="opacity:0.967" fill="#9d26b0" d="M 430.5,33.5 C 438.84,33.3336 447.173,33.5003 455.5,34C 460.155,36.8966 461.655,41.0633 460,46.5C 458.363,48.8102 456.196,50.3102 453.5,51C 446.5,51.6667 439.5,51.6667 432.5,51C 425.357,47.5638 423.857,42.3971 428,35.5C 428.995,34.9341 429.828,34.2674 430.5,33.5 Z"/></g>
<g><path style="opacity:0.968" fill="#9d26b0" d="M 511.5,37.5 C 511.5,40.5 511.5,43.5 511.5,46.5C 510.146,48.6959 508.146,50.1959 505.5,51C 498.167,51.6667 490.833,51.6667 483.5,51C 475.353,46.2217 474.686,40.555 481.5,34C 490.167,33.3333 498.833,33.3333 507.5,34C 508.705,35.3756 510.038,36.5423 511.5,37.5 Z"/></g>
<g><path style="opacity:1" fill="#f3b807" d="M 342.5,36.5 C 354.593,40.2132 365.926,45.5465 376.5,52.5C 377.521,53.0016 377.688,53.6683 377,54.5C 325.833,105.667 274.667,156.833 223.5,208C 220.411,206.109 218.078,203.276 216.5,199.5C 266.25,151.251 315.583,102.418 364.5,53C 357.506,46.8113 350.173,41.3113 342.5,36.5 Z"/></g>
<g><path style="opacity:0.968" fill="#9d27b0" d="M 464.5,50.5 C 467.187,50.3359 469.854,50.5026 472.5,51C 474.667,51.8333 476.167,53.3333 477,55.5C 477.667,63.8333 477.667,72.1667 477,80.5C 473.517,85.4647 469.017,86.6313 463.5,84C 461.513,82.6811 460.346,80.8477 460,78.5C 459.333,71.5 459.333,64.5 460,57.5C 460.904,54.7666 462.404,52.4333 464.5,50.5 Z"/></g>
<g><path style="opacity:0.959" fill="#010000" d="M 427.5,67.5 C 432.347,66.8404 436.181,68.5071 439,72.5C 443.706,82.078 448.539,91.578 453.5,101C 465.435,103.182 477.435,105.182 489.5,107C 491.667,107.833 493.167,109.333 494,111.5C 494.817,114.964 494.483,118.298 493,121.5C 484.5,129.333 476,137.167 467.5,145C 469.926,155.884 471.926,166.884 473.5,178C 472.916,186.14 468.583,189.14 460.5,187C 450.657,181.578 440.657,176.411 430.5,171.5C 420.136,176.682 409.802,181.849 399.5,187C 388.98,187.868 385.147,183.035 388,172.5C 389.993,163.213 391.327,153.88 392,144.5C 384.303,136.469 376.303,128.802 368,121.5C 364.531,115.542 365.698,110.709 371.5,107C 383.595,105.368 395.595,103.368 407.5,101C 412.461,91.578 417.294,82.078 422,72.5C 423.73,70.5981 425.563,68.9314 427.5,67.5 Z"/></g>
<g><path style="opacity:1" fill="#f5f4f2" d="M 237.5,88.5 C 243.925,87.5342 247.592,90.2009 248.5,96.5C 246.227,103.049 243.394,109.382 240,115.5C 235.809,128.181 234.476,141.181 236,154.5C 237.959,160.368 238.625,166.368 238,172.5C 236.471,175.516 233.971,176.849 230.5,176.5C 227.209,176.721 224.709,175.387 223,172.5C 214.223,144.26 217.557,117.593 233,92.5C 234.397,90.9297 235.897,89.5964 237.5,88.5 Z"/></g>
<g><path style="opacity:1" fill="#f1b707" d="M 439.5,112.5 C 433.929,111.103 428.262,110.436 422.5,110.5C 424.9,105.368 427.566,100.368 430.5,95.5C 433.767,101.035 436.767,106.702 439.5,112.5 Z"/></g>
<g><path style="opacity:1" fill="#fad700" d="M 422.5,110.5 C 428.262,110.436 433.929,111.103 439.5,112.5C 440.277,115.112 441.944,116.945 444.5,118C 447.793,118.826 451.126,119.326 454.5,119.5C 454.631,120.239 454.464,120.906 454,121.5C 446.53,127.968 439.364,134.802 432.5,142C 433.416,144.57 434.082,147.237 434.5,150C 434.316,151.376 433.649,152.209 432.5,152.5C 430.801,152.34 429.134,152.506 427.5,153C 421.08,156.627 414.58,160.127 408,163.5C 409.319,154.907 409.986,146.241 410,137.5C 404.833,132.333 399.667,127.167 394.5,122C 402.427,120.057 410.427,118.39 418.5,117C 420.221,115.056 421.554,112.89 422.5,110.5 Z"/></g>
<g><path style="opacity:1" fill="#f7bc07" d="M 454.5,119.5 C 458.496,120.169 462.496,121.003 466.5,122C 460.946,127.554 455.446,133.054 450,138.5C 450.89,146.841 451.89,155.174 453,163.5C 446.025,159.932 439.192,156.265 432.5,152.5C 433.649,152.209 434.316,151.376 434.5,150C 434.082,147.237 433.416,144.57 432.5,142C 439.364,134.802 446.53,127.968 454,121.5C 454.464,120.906 454.631,120.239 454.5,119.5 Z"/></g>
<g><path style="opacity:0.952" fill="#000000" d="M 337.5,144.5 C 354.857,141.925 367.024,148.592 374,164.5C 378.19,183.96 371.023,197.126 352.5,204C 330.261,206.39 317.594,196.557 314.5,174.5C 315.473,159.212 323.14,149.212 337.5,144.5 Z"/></g>
<g><path style="opacity:0.888" fill="#000000" d="M 511.5,148.5 C 511.5,151.5 511.5,154.5 511.5,157.5C 507.208,162.654 502.208,163.488 496.5,160C 492.625,154.473 493.292,149.473 498.5,145C 503.674,143.539 508.007,144.706 511.5,148.5 Z"/></g>
<g><path style="opacity:1" fill="#9926ab" d="M 341.5,161.5 C 353.684,161.514 358.85,167.514 357,179.5C 352.251,187.628 345.751,189.461 337.5,185C 329.75,175.46 331.084,167.627 341.5,161.5 Z"/></g>
<g><path style="opacity:1" fill="#fddeb1" d="M 120.5,196.5 C 153.192,221.097 161.026,252.097 144,289.5C 137.681,299.317 129.848,307.65 120.5,314.5C 85.3203,317.497 62.4869,302.163 52,268.5C 47.3161,240.04 57.1494,218.207 81.5,203C 93.7761,196.378 106.776,194.211 120.5,196.5 Z"/></g>
<g><path style="opacity:1" fill="#dbc199" d="M 120.5,196.5 C 151.285,203.89 167.952,223.39 170.5,255C 168.253,287.014 151.586,306.847 120.5,314.5C 129.848,307.65 137.681,299.317 144,289.5C 161.026,252.097 153.192,221.097 120.5,196.5 Z"/></g>
<g><path style="opacity:1" fill="#978200" d="M 451.5,230.5 C 445.833,230.5 440.167,230.5 434.5,230.5C 366.5,230.5 298.5,230.5 230.5,230.5C 230.5,232.833 230.5,235.167 230.5,237.5C 229.527,235.052 229.194,232.385 229.5,229.5C 303.669,229.167 377.669,229.501 451.5,230.5 Z"/></g>
<g><path style="opacity:1" fill="#fcda00" d="M 434.5,230.5 C 433.73,264.669 421.23,293.669 397,317.5C 393.166,322.497 389.833,327.83 387,333.5C 386.536,332.906 386.369,332.239 386.5,331.5C 390.845,308.783 395.512,286.117 400.5,263.5C 398.937,257.214 394.937,254.714 388.5,256C 372.446,261.574 356.28,266.74 340,271.5C 322.925,266.364 305.925,261.03 289,255.5C 282.582,256.992 280.249,260.992 282,267.5C 289.66,303.14 297.16,338.807 304.5,374.5C 299.5,374.5 294.5,374.5 289.5,374.5C 289.802,371.941 289.468,369.607 288.5,367.5C 285.883,346.604 278.049,327.937 265,311.5C 244.071,291.305 232.571,266.638 230.5,237.5C 230.5,235.167 230.5,232.833 230.5,230.5C 298.5,230.5 366.5,230.5 434.5,230.5 Z"/></g>
<g><path style="opacity:1" fill="#fabe07" d="M 434.5,230.5 C 440.167,230.5 445.833,230.5 451.5,230.5C 450.78,263.268 438.613,290.935 415,313.5C 401.334,331.51 393.834,351.843 392.5,374.5C 387.305,374.821 382.305,374.487 377.5,373.5C 379.898,359.255 382.898,345.255 386.5,331.5C 386.369,332.239 386.536,332.906 387,333.5C 389.833,327.83 393.166,322.497 397,317.5C 421.23,293.669 433.73,264.669 434.5,230.5 Z"/></g>
<g><path style="opacity:1" fill="#fb9500" d="M 379.5,276.5 C 380.124,276.917 380.457,277.584 380.5,278.5C 373.731,310.181 366.897,341.847 360,373.5C 353.907,374.811 347.574,375.478 341,375.5C 334.589,375.49 328.256,375.157 322,374.5C 314.845,342.225 308.012,309.891 301.5,277.5C 314.488,281.496 327.488,285.496 340.5,289.5C 353.796,285.735 366.796,281.401 379.5,276.5 Z"/></g>
<g><path style="opacity:1" fill="#9c26af" d="M 171.5,332.5 C 179.377,339.893 184.544,348.893 187,359.5C 187.5,404.499 187.667,449.499 187.5,494.5C 181.833,494.5 176.167,494.5 170.5,494.5C 170.667,459.498 170.5,424.498 170,389.5C 166.84,384.002 162.34,382.502 156.5,385C 155.299,385.903 154.465,387.069 154,388.5C 153.5,423.832 153.333,459.165 153.5,494.5C 124.833,494.5 96.1667,494.5 67.5,494.5C 67.6667,459.165 67.5,423.832 67,388.5C 61.2569,381.579 55.9235,381.912 51,389.5C 50.5,424.498 50.3333,459.498 50.5,494.5C 39.1667,494.5 27.8333,494.5 16.5,494.5C 16.3333,449.499 16.5,404.499 17,359.5C 20.391,345.775 28.891,336.942 42.5,333C 85.4987,332.5 128.499,332.333 171.5,332.5 Z"/></g>
<g><path style="opacity:1" fill="#681a97" d="M 171.5,332.5 C 184.053,333.188 193.553,338.855 200,349.5C 201.927,352.948 203.261,356.615 204,360.5C 204.5,405.165 204.667,449.832 204.5,494.5C 198.833,494.5 193.167,494.5 187.5,494.5C 187.667,449.499 187.5,404.499 187,359.5C 184.544,348.893 179.377,339.893 171.5,332.5 Z"/></g>
<g><path style="opacity:1" fill="#675904" d="M 288.5,367.5 C 289.468,369.607 289.802,371.941 289.5,374.5C 294.5,374.5 299.5,374.5 304.5,374.5C 299.36,375.488 294.026,375.821 288.5,375.5C 288.5,372.833 288.5,370.167 288.5,367.5 Z"/></g>
<g><path style="opacity:1" fill="#6e5404" d="M 377.5,373.5 C 382.305,374.487 387.305,374.821 392.5,374.5C 387.32,375.815 381.986,375.815 376.5,374.5C 376.624,373.893 376.957,373.56 377.5,373.5 Z"/></g>
<g><path style="opacity:1" fill="#7e8d93" d="M 289.5,392.5 C 317.833,392.5 346.167,392.5 374.5,392.5C 374.666,402.839 374.5,413.172 374,423.5C 373.028,427.436 371.528,431.103 369.5,434.5C 346.831,434.667 324.164,434.5 301.5,434C 295.269,432.037 291.436,427.87 290,421.5C 289.5,411.839 289.334,402.172 289.5,392.5 Z"/></g>
<g><path style="opacity:1" fill="#50575b" d="M 289.5,392.5 C 323.331,391.336 357.331,391.169 391.5,392C 392.65,401.089 392.817,410.255 392,419.5C 389.183,431.335 381.683,436.335 369.5,434.5C 371.528,431.103 373.028,427.436 374,423.5C 374.5,413.172 374.666,402.839 374.5,392.5C 346.167,392.5 317.833,392.5 289.5,392.5 Z"/></g>
<g><path style="opacity:1" fill="#5f7b89" d="M 316.5,452.5 C 327.187,452.168 337.854,452.501 348.5,453.5C 346.677,458.979 344.01,463.979 340.5,468.5C 328.804,468.655 320.804,463.322 316.5,452.5 Z"/></g>
<g><path style="opacity:1" fill="#37474f" d="M 316.5,452.5 C 332.672,451.173 349.005,451.173 365.5,452.5C 360.973,463.606 352.64,468.939 340.5,468.5C 344.01,463.979 346.677,458.979 348.5,453.5C 337.854,452.501 327.187,452.168 316.5,452.5 Z"/></g>
</svg>
