<?xml version="1.0" encoding="UTF-8"?>
<!DOCTYPE svg PUBLIC "-//W3C//DTD SVG 1.1//EN" "http://www.w3.org/Graphics/SVG/1.1/DTD/svg11.dtd">
<svg xmlns="http://www.w3.org/2000/svg" version="1.1" width="256px" height="256px" style="shape-rendering:geometricPrecision; text-rendering:geometricPrecision; image-rendering:optimizeQuality; fill-rule:evenodd; clip-rule:evenodd" xmlns:xlink="http://www.w3.org/1999/xlink">
<g><path style="opacity:0.987" fill="#d5effe" d="M -0.5,14.5 C 42.1667,14.5 84.8333,14.5 127.5,14.5C 127.5,19.5 127.5,24.5 127.5,29.5C 89.8333,29.5 52.1667,29.5 14.5,29.5C 14.5,84.1667 14.5,138.833 14.5,193.5C 51.9963,194.498 89.663,194.832 127.5,194.5C 127.5,199.167 127.5,203.833 127.5,208.5C 102.092,208.177 76.7589,208.51 51.5,209.5C 34.1667,209.5 16.8333,209.5 -0.5,209.5C -0.5,144.5 -0.5,79.5 -0.5,14.5 Z"/></g>
<g><path style="opacity:0.987" fill="#c5d6fc" d="M 127.5,14.5 C 170.167,14.5 212.833,14.5 255.5,14.5C 255.5,79.5 255.5,144.5 255.5,209.5C 238.167,209.5 220.833,209.5 203.5,209.5C 178.241,208.51 152.908,208.177 127.5,208.5C 127.5,203.833 127.5,199.167 127.5,194.5C 89.663,194.832 51.9963,194.498 14.5,193.5C 52.1667,193.5 89.8333,193.5 127.5,193.5C 165.167,193.5 202.833,193.5 240.5,193.5C 240.5,139.167 240.5,84.8333 240.5,30.5C 203.004,29.5015 165.337,29.1682 127.5,29.5C 127.5,24.5 127.5,19.5 127.5,14.5 Z"/></g>
<g><path style="opacity:1" fill="#7871d3" d="M 127.5,29.5 C 165.337,29.1682 203.004,29.5015 240.5,30.5C 202.833,30.5 165.167,30.5 127.5,30.5C 127.5,84.8333 127.5,139.167 127.5,193.5C 89.8333,193.5 52.1667,193.5 14.5,193.5C 14.5,138.833 14.5,84.1667 14.5,29.5C 52.1667,29.5 89.8333,29.5 127.5,29.5 Z"/></g>
<g><path style="opacity:1" fill="#6357b6" d="M 240.5,30.5 C 240.5,84.8333 240.5,139.167 240.5,193.5C 202.833,193.5 165.167,193.5 127.5,193.5C 127.5,139.167 127.5,84.8333 127.5,30.5C 165.167,30.5 202.833,30.5 240.5,30.5 Z"/></g>
<g><path style="opacity:1" fill="#e1fbfe" d="M 65.5,51.5 C 80.4111,50.9372 89.0778,57.9372 91.5,72.5C 104.392,75.4109 107.725,82.7442 101.5,94.5C 99.5065,96.4986 97.1732,97.9986 94.5,99C 78.1667,99.6667 61.8333,99.6667 45.5,99C 33.4469,91.9643 32.4469,83.631 42.5,74C 44.6775,72.7978 47.0108,72.2978 49.5,72.5C 50.3122,62.0249 55.6456,55.0249 65.5,51.5 Z"/></g>
<g><path style="opacity:1" fill="#45489e" d="M 136.5,53.5 C 150.167,53.5 163.833,53.5 177.5,53.5C 177.5,58.8333 177.5,64.1667 177.5,69.5C 163.833,69.5 150.167,69.5 136.5,69.5C 136.5,64.1667 136.5,58.8333 136.5,53.5 Z"/></g>
<g><path style="opacity:1" fill="#45489e" d="M 136.5,83.5 C 165.167,83.5 193.833,83.5 222.5,83.5C 222.5,88.8333 222.5,94.1667 222.5,99.5C 193.833,99.5 165.167,99.5 136.5,99.5C 136.5,94.1667 136.5,88.8333 136.5,83.5 Z"/></g>
<g><path style="opacity:1" fill="#97f6fc" d="M 62.5,123.5 C 67.5,123.5 72.5,123.5 77.5,123.5C 77.3343,127.846 77.501,132.179 78,136.5C 81.75,134.041 85.5834,131.708 89.5,129.5C 92.4098,132.926 94.7432,136.759 96.5,141C 92.7059,144.069 88.7059,146.902 84.5,149.5C 88.8333,152.333 93.1667,155.167 97.5,158C 94.6975,161.783 92.0308,165.617 89.5,169.5C 85.5834,167.292 81.75,164.959 78,162.5C 77.501,166.821 77.3343,171.154 77.5,175.5C 72.5,175.5 67.5,175.5 62.5,175.5C 62.6657,171.154 62.499,166.821 62,162.5C 58.2984,165.032 54.465,167.365 50.5,169.5C 47.7834,165.9 45.4501,162.067 43.5,158C 47.2941,154.931 51.2941,152.098 55.5,149.5C 51.2941,146.902 47.2941,144.069 43.5,141C 45.4501,136.933 47.7834,133.1 50.5,129.5C 54.465,131.635 58.2984,133.968 62,136.5C 62.499,132.179 62.6657,127.846 62.5,123.5 Z"/></g>
<g><path style="opacity:1" fill="#43479d" d="M 136.5,129.5 C 150.167,129.5 163.833,129.5 177.5,129.5C 177.5,134.5 177.5,139.5 177.5,144.5C 163.833,144.5 150.167,144.5 136.5,144.5C 136.5,139.5 136.5,134.5 136.5,129.5 Z"/></g>
<g><path style="opacity:1" fill="#43479d" d="M 136.5,159.5 C 165.167,159.5 193.833,159.5 222.5,159.5C 222.5,164.5 222.5,169.5 222.5,174.5C 193.833,174.5 165.167,174.5 136.5,174.5C 136.5,169.5 136.5,164.5 136.5,159.5 Z"/></g>
<g><path style="opacity:0.993" fill="#c6d7fd" d="M 127.5,208.5 C 127.5,214.167 127.5,219.833 127.5,225.5C 99.9949,225.831 72.6616,225.498 45.5,224.5C 47.5,219.5 49.5,214.5 51.5,209.5C 76.7589,208.51 102.092,208.177 127.5,208.5 Z"/></g>
<g><path style="opacity:0.997" fill="#aabffe" d="M 127.5,208.5 C 152.908,208.177 178.241,208.51 203.5,209.5C 205.777,214.387 207.777,219.387 209.5,224.5C 182.338,225.498 155.005,225.831 127.5,225.5C 127.5,219.833 127.5,214.167 127.5,208.5 Z"/></g>
<g><path style="opacity:0.966" fill="#d5effe" d="M 45.5,224.5 C 72.6616,225.498 99.9949,225.831 127.5,225.5C 127.5,230.5 127.5,235.5 127.5,240.5C 93.5,240.5 59.5,240.5 25.5,240.5C 25.5,235.167 25.5,229.833 25.5,224.5C 32.1667,224.5 38.8333,224.5 45.5,224.5 Z"/></g>
<g><path style="opacity:0.967" fill="#c5d7fd" d="M 209.5,224.5 C 216.167,224.5 222.833,224.5 229.5,224.5C 229.5,229.833 229.5,235.167 229.5,240.5C 195.5,240.5 161.5,240.5 127.5,240.5C 127.5,235.5 127.5,230.5 127.5,225.5C 155.005,225.831 182.338,225.498 209.5,224.5 Z"/></g>
</svg>
