<?xml version="1.0" encoding="UTF-8"?>
<!DOCTYPE svg PUBLIC "-//W3C//DTD SVG 1.1//EN" "http://www.w3.org/Graphics/SVG/1.1/DTD/svg11.dtd">
<svg xmlns="http://www.w3.org/2000/svg" version="1.1" width="512px" height="512px" style="shape-rendering:geometricPrecision; text-rendering:geometricPrecision; image-rendering:optimizeQuality; fill-rule:evenodd; clip-rule:evenodd" xmlns:xlink="http://www.w3.org/1999/xlink">
<g><path style="opacity:0.988" fill="#77e65a" d="M 436.5,24.5 C 403.139,37.6741 373.139,56.1741 346.5,80C 316.723,107.42 291.89,138.587 272,173.5C 270.989,174.337 269.822,174.67 268.5,174.5C 255.708,136.169 264.041,103.002 293.5,75C 311.323,60.0814 331.323,48.7481 353.5,41C 380.523,31.0284 408.19,25.5284 436.5,24.5 Z"/></g>
<g><path style="opacity:1" fill="#5ec363" d="M 436.5,24.5 C 439.441,25.8025 440.774,28.1359 440.5,31.5C 434.739,79.5181 414.739,120.351 380.5,154C 363.987,168.759 344.987,179.093 323.5,185C 310.163,188.283 296.83,188.283 283.5,185C 279.806,183.802 276.472,181.968 273.5,179.5C 265.188,197.929 257.354,216.596 250,235.5C 249.5,258.164 249.333,280.831 249.5,303.5C 248.674,307.982 248.174,312.649 248,317.5C 243.532,313.392 238.699,312.725 233.5,315.5C 232.511,311.893 232.177,308.226 232.5,304.5C 232.667,283.831 232.5,263.164 232,242.5C 225.392,227.622 218.558,212.956 211.5,198.5C 213.273,195.94 215.273,193.607 217.5,191.5C 225.137,201.316 232.637,211.316 240,221.5C 249.511,205.806 259.011,190.139 268.5,174.5C 269.822,174.67 270.989,174.337 272,173.5C 291.89,138.587 316.723,107.42 346.5,80C 373.139,56.1741 403.139,37.6741 436.5,24.5 Z"/></g>
<g><path style="opacity:0.989" fill="#77e65a" d="M 66.5,41.5 C 103.509,45.2681 138.175,56.7681 170.5,76C 191.883,88.0493 207.716,105.216 218,127.5C 224.623,145.11 225.957,163.11 222,181.5C 221.164,185.191 219.664,188.524 217.5,191.5C 215.273,193.607 213.273,195.94 211.5,198.5C 210.833,198.5 210.167,198.5 209.5,198.5C 210.122,197.373 210.955,196.373 212,195.5C 212.667,194.167 212.667,192.833 212,191.5C 187.039,140.541 151.872,98.0406 106.5,64C 93.9489,55.2215 80.6156,47.7215 66.5,41.5 Z"/></g>
<g><path style="opacity:1" fill="#5ec362" d="M 66.5,41.5 C 80.6156,47.7215 93.9489,55.2215 106.5,64C 151.872,98.0406 187.039,140.541 212,191.5C 212.667,192.833 212.667,194.167 212,195.5C 210.955,196.373 210.122,197.373 209.5,198.5C 207.615,200.311 205.281,201.478 202.5,202C 176.541,205.927 152.874,200.26 131.5,185C 100.979,161.836 80.4789,131.669 70,94.5C 65.1296,78.4882 62.463,62.1549 62,45.5C 62.7475,43.249 64.2475,41.9156 66.5,41.5 Z"/></g>
<g><path style="opacity:1" fill="#fafdfa" d="M 402.5,87.5 C 396.813,117.416 380.313,139.749 353,154.5C 367.625,131.004 384.125,108.671 402.5,87.5 Z"/></g>
<g><path style="opacity:0.992" fill="#be7c5a" d="M 249.5,303.5 C 266.613,305.471 280.113,313.471 290,327.5C 305.271,324.098 319.438,326.765 332.5,335.5C 309.981,342.426 288.981,352.592 269.5,366C 237.833,366.333 206.167,366.667 174.5,367C 155.737,372.682 148.404,385.182 152.5,404.5C 152.167,404.5 151.833,404.5 151.5,404.5C 145.811,401.324 140.477,397.658 135.5,393.5C 134.893,384.513 134.56,375.513 134.5,366.5C 141.958,341.238 158.958,327.571 185.5,325.5C 189.432,325.846 193.265,326.513 197,327.5C 205.822,315.173 217.655,307.506 232.5,304.5C 232.177,308.226 232.511,311.893 233.5,315.5C 238.699,312.725 243.532,313.392 248,317.5C 248.174,312.649 248.674,307.982 249.5,303.5 Z"/></g>
<g><path style="opacity:0.997" fill="#b189fc" d="M 470.5,315.5 C 462.775,321.114 457.942,328.781 456,338.5C 453.578,348.034 451.911,357.701 451,367.5C 449.102,395.747 450.768,423.747 456,451.5C 457.8,459.254 461.3,466.087 466.5,472C 468.909,473.707 471.575,474.54 474.5,474.5C 448.833,475.833 423.167,475.833 397.5,474.5C 419.503,474.667 441.503,474.5 463.5,474C 429.643,467.481 406.809,447.981 395,415.5C 386.862,390.677 382.695,365.344 382.5,339.5C 383.038,337.883 383.371,336.216 383.5,334.5C 385.127,326.735 389.127,320.568 395.5,316C 420.498,315.5 445.498,315.333 470.5,315.5 Z"/></g>
<g><path style="opacity:1" fill="#7f5bf2" d="M 470.5,315.5 C 478.111,314.93 483.278,318.264 486,325.5C 491.89,340.949 495.223,356.949 496,373.5C 498.614,402.696 495.947,431.362 488,459.5C 486.055,464.557 483.221,469.057 479.5,473C 477.975,474.009 476.308,474.509 474.5,474.5C 471.575,474.54 468.909,473.707 466.5,472C 461.3,466.087 457.8,459.254 456,451.5C 450.768,423.747 449.102,395.747 451,367.5C 451.911,357.701 453.578,348.034 456,338.5C 457.942,328.781 462.775,321.114 470.5,315.5 Z"/></g>
<g><path style="opacity:0.987" fill="#f2a496" d="M 134.5,366.5 C 134.56,375.513 134.893,384.513 135.5,393.5C 105.935,373.227 76.2688,353.227 46.5,333.5C 57.6736,320.72 70.3403,319.22 84.5,329C 101.044,341.717 117.71,354.217 134.5,366.5 Z"/></g>
<g><path style="opacity:1" fill="#aa6356" d="M 234.5,330.5 C 240.82,330.32 243.32,333.32 242,339.5C 238.38,343.487 234.713,343.487 231,339.5C 230.333,337.833 230.333,336.167 231,334.5C 232.376,333.295 233.542,331.962 234.5,330.5 Z"/></g>
<g><path style="opacity:0.996" fill="#f9bcaa" d="M 46.5,333.5 C 76.2688,353.227 105.935,373.227 135.5,393.5C 140.477,397.658 145.811,401.324 151.5,404.5C 154.954,411.926 160.621,417.092 168.5,420C 181.122,421.116 193.788,421.616 206.5,421.5C 224.962,422.11 243.296,420.943 261.5,418C 252.85,416.906 244.183,415.906 235.5,415C 212.5,414.667 189.5,414.333 166.5,414C 160.55,412.539 155.883,409.373 152.5,404.5C 148.404,385.182 155.737,372.682 174.5,367C 206.167,366.667 237.833,366.333 269.5,366C 288.981,352.592 309.981,342.426 332.5,335.5C 349.462,332.068 366.462,331.735 383.5,334.5C 383.371,336.216 383.038,337.883 382.5,339.5C 374.283,378.524 374.616,417.524 383.5,456.5C 325.675,479.304 265.675,489.471 203.5,487C 174.697,483.433 147.697,474.433 122.5,460C 83.5435,437.06 49.3768,408.227 20,373.5C 12.3353,361.643 12.8353,350.143 21.5,339C 28.8689,332.908 37.2023,331.075 46.5,333.5 Z"/></g>
<g><path style="opacity:1" fill="#f6f3fe" d="M 476.5,334.5 C 482.073,341.455 485.239,349.455 486,358.5C 486.667,365.5 486.667,372.5 486,379.5C 485.882,382.371 485.216,385.038 484,387.5C 481.58,369.808 479.08,352.142 476.5,334.5 Z"/></g>
<g><path style="opacity:1" fill="#996ff8" d="M 382.5,339.5 C 382.695,365.344 386.862,390.677 395,415.5C 406.809,447.981 429.643,467.481 463.5,474C 441.503,474.5 419.503,474.667 397.5,474.5C 394.041,473.564 391.207,471.564 389,468.5C 386.879,464.593 385.045,460.593 383.5,456.5C 374.616,417.524 374.283,378.524 382.5,339.5 Z"/></g>
<g><path style="opacity:1" fill="#aa6356" d="M 169.5,347.5 C 175.82,347.32 178.32,350.32 177,356.5C 173.021,360.644 169.355,360.31 166,355.5C 165.279,351.946 166.446,349.28 169.5,347.5 Z"/></g>
<g><path style="opacity:1" fill="#f2a496" d="M 172.5,375.5 C 177.167,375.5 181.833,375.5 186.5,375.5C 186.5,385.833 186.5,396.167 186.5,406.5C 181.07,406.839 175.736,406.339 170.5,405C 161.643,399.429 159.476,391.929 164,382.5C 166.441,379.546 169.275,377.213 172.5,375.5 Z"/></g>
<g><path style="opacity:1" fill="#f2a596" d="M 151.5,404.5 C 151.833,404.5 152.167,404.5 152.5,404.5C 155.883,409.373 160.55,412.539 166.5,414C 189.5,414.333 212.5,414.667 235.5,415C 244.183,415.906 252.85,416.906 261.5,418C 243.296,420.943 224.962,422.11 206.5,421.5C 193.788,421.616 181.122,421.116 168.5,420C 160.621,417.092 154.954,411.926 151.5,404.5 Z"/></g>
<g><path style="opacity:1" fill="#fefaf9" d="M 133.5,450.5 C 152.728,455.75 171.728,462.584 190.5,471C 169.264,470.382 150.264,463.549 133.5,450.5 Z"/></g>
</svg>
